<?xml version="1.0" encoding="UTF-8"?>
<!DOCTYPE svg PUBLIC "-//W3C//DTD SVG 1.1//EN" "http://www.w3.org/Graphics/SVG/1.1/DTD/svg11.dtd">
<!-- Creator: CorelDRAW 2020 (64-Bit) -->
<svg xmlns="http://www.w3.org/2000/svg" xml:space="preserve" width="210mm" height="297mm" version="1.1" style="shape-rendering:geometricPrecision; text-rendering:geometricPrecision; image-rendering:optimizeQuality; fill-rule:evenodd; clip-rule:evenodd"
viewBox="0 0 21000 29700"
 xmlns:xlink="http://www.w3.org/1999/xlink"
 xmlns:xodm="http://www.corel.com/coreldraw/odm/2003">
 <defs>
  <style type="text/css">
   <![CDATA[
    .fil1 {fill:#FEFEFE;fill-rule:nonzero}
    .fil0 {fill:#57B5E0;fill-rule:nonzero}
    .fil2 {fill:url(#id0)}
   ]]>
  </style>
  <linearGradient id="id0" gradientUnits="userSpaceOnUse" x1="7042.9" y1="10237.36" x2="13707.06" y2="19632.1">
   <stop offset="0" style="stop-opacity:1; stop-color:#57B5E0"/>
   <stop offset="0.309804" style="stop-opacity:1; stop-color:#57B5E0"/>
   <stop offset="0.588235" style="stop-opacity:1; stop-color:#2C73B1"/>
   <stop offset="0.901961" style="stop-opacity:1; stop-color:#003082"/>
   <stop offset="1" style="stop-opacity:1; stop-color:#003082"/>
  </linearGradient>
 </defs>
 <g id="Layer_x0020_1">
  <metadata id="CorelCorpID_0Corel-Layer"/>
  <path class="fil0" d="M16240.76 18544.33l165.91 -278.57 -259.45 -154.46 -185.54 311.55 -77.8 -46.35 241.39 -405.48 719.23 428.22 -231.94 389.55 -77.92 -46.36 175.91 -295.57 -227.1 -135.45 -165.91 278.57 -76.78 -45.65zm556.56 308.17l-43.88 -212.74 44.98 -75.63 66.23 175.31 -67.33 113.06z"/>
  <path class="fil0" d="M15342.95 19148.82c8.11,-42.54 42.31,-118.34 104.91,-198.61 145.45,-185.74 371.49,-232.89 588.67,-63.01 207.42,162.25 236.86,410.8 76.81,615.23 -63.55,81.18 -122.38,120.22 -151.66,133.68l-52.61 -75.95c40.14,-19.12 87.87,-55.84 130.68,-110.62 120.93,-154.53 102.52,-334.57 -70.75,-470.06 -162.4,-126.98 -337.84,-114.39 -462.58,45.02 -41.2,52.77 -71.86,114.04 -81.85,161.23l-81.62 -36.91z"/>
  <path class="fil0" d="M14957.23 19615.06c-123.49,118.92 -83.9,299.62 47.69,436.53 115.42,120.02 298.72,185.07 428.31,60.09 129.86,-124.79 78.07,-307.66 -47.74,-438.34 -122.19,-126.99 -304.74,-177.17 -427.48,-59.19l-0.78 0.91zm-57.62 -66.98c160.25,-154.1 390.02,-137.46 565.73,45.18 184.24,191.52 186.68,430.58 25.65,585.39 -165.67,159.38 -393.71,135.69 -565.88,-43.36 -198.76,-206.8 -179.4,-439.17 -26.28,-586.38l0.78 -0.83z"/>
  <polygon class="fil0" points="14891.47,20682 14803.36,20746.54 14362.07,20144.5 14073.54,20355.81 14020.02,20282.78 14396.66,20006.76 "/>
  <polygon class="fil0" points="13606.91,20984.03 13888.63,20823.75 13739.4,20561.51 13424.16,20740.99 13379.34,20662.17 13789.42,20428.66 14203.6,21156.23 13809.65,21380.42 13764.9,21301.44 14063.66,21131.4 13932.98,20901.47 13651.3,21061.98 "/>
  <path class="fil0" d="M12651.96 21072.49c-27.51,3.74 -65.17,16.37 -105.31,29.55 -219.62,71.39 -297.89,234.5 -226.94,449.13 61.55,190.18 206.32,271.8 423.27,200.22 53.12,-17.51 91.61,-35.42 116.83,-50.45l-207.85 -628.45zm336.49 669.73c-60.56,30.38 -132.42,62.14 -213.76,88.97 -147.53,48.6 -263.3,50.37 -354.4,8.46 -93.26,-41 -165.39,-120.65 -207.97,-249.21 -42.82,-129.51 -36.6,-249.29 12.2,-346.65 51,-99.13 160.36,-179.76 314.81,-231 74.3,-24.39 135.29,-41.91 190.62,-52.45l258.5 781.88z"/>
  <path class="fil0" d="M11822.54 22084.66l-83.78 -489.77c-31.44,-183.62 -126.71,-247.76 -237.1,-229.19 -121.2,20.94 -186.8,115.22 -155.91,296.52l83.78 489.53 -107.63 18.62 -82.6 -482.34c-43.36,-253.46 72.57,-379.27 251.27,-409.77 168.89,-28.88 312.61,44.82 356.52,301.75l83.23 486.07 -107.78 18.58z"/>
  <path class="fil0" d="M9693.57 21724c-0.6,116.91 -1.38,258.78 -7.4,361.64l2.48 0.16c35.41,-95.11 75.04,-198.53 123.91,-311.27l171.26 -396.91 81.78 4.88 113.17 405.92c32.74,121.32 58.79,229.89 76.46,330.4l2.48 0.11c8.62,-103.96 22.91,-242.48 37.7,-368.53l43.21 -356.84 102.98 5.87 -107.07 832.4 -137.58 -8.18 -119 -412.6c-28.72,-104.8 -50.68,-198.1 -67.96,-286.25l-2.4 -0.16c-27.31,83.04 -62.37,172.99 -105.78,276.25l-172.32 395.53 -137.65 -8.19 -3.3 -838.62 106.64 6.25 -1.61 368.14z"/>
  <path class="fil0" d="M8928.25 21295.73c-167.17,-37.89 -296.52,94.53 -338.46,279.99 -36.72,162.17 9.6,350.98 185.26,390.69 175.63,39.94 299.79,-103.85 339.89,-280.7 39.03,-172.01 -19.48,-351.92 -185.47,-389.7l-1.22 -0.28zm24.32 -84.84c216.87,49.19 329.14,250.32 273.14,497.45 -58.71,259.05 -256.97,392.45 -474.98,343.14 -224.14,-50.8 -329.49,-254.17 -274.67,-496.42 63.39,-279.87 268.22,-391.51 475.37,-344.56l1.14 0.39z"/>
  <path class="fil0" d="M8288.9 21046.4l-306.39 778.93 -111.01 -43.68 -93.42 -491.86c-20.78,-113.61 -35.18,-212.7 -39.16,-307.65l-3.9 -0.16c-31.67,107.59 -66.58,203.37 -113.92,323.47l-128.68 327.06 -94.76 -37.19 306.39 -779.13 101.73 40.02 91.89 492.57c20.22,108.26 37.3,217.69 42.06,316.9l4.06 0.2c32.89,-100.39 68.47,-194.52 119.39,-324.03l130.96 -332.79 94.76 37.34z"/>
  <path class="fil0" d="M7256.31 20684.48c-21.17,-18.06 -55.37,-38.01 -91.93,-59.14 -199.19,-117.15 -373.21,-67.37 -486.7,128.12 -101.41,172.29 -66.54,334.69 131.12,449.4 48.21,28.18 87.32,45.1 115.07,54.03l332.44 -572.41zm-277.82 696.1c-63.08,-25.19 -134.39,-57.93 -208.49,-101.1 -134.23,-77.88 -212.3,-163.55 -241.46,-259.49 -31.21,-97 -19.4,-203.6 48.56,-320.63 68.47,-118.37 162.36,-193.06 267.51,-221 108.18,-27.75 241.07,0.7 381.71,82.32 67.61,39.31 121.09,73.31 165.71,107.86l-413.54 712.04z"/>
  <polygon class="fil0" points="5977.53,20191.4 6233.4,20390.25 6418.63,20152.17 6132.54,19929.48 6187.99,19857.9 6560.57,20147.68 6046.63,20808.48 5688.77,20530.06 5744.53,20458.41 6015.98,20669.8 6178.38,20460.92 5922.56,20261.88 "/>
  <path class="fil0" d="M5400.01 19508.37c48.2,51.79 45.88,133.41 -7.8,183.3 -51.98,49.9 -135.29,45.93 -184.4,-7.04 -48.83,-52.77 -46.75,-134.39 6.97,-184.28 52.96,-48.92 135.29,-45.81 184.36,7.08l0.87 0.94z"/>
  <path class="fil0" d="M4738.42 18178.83c37.7,21.41 98.42,78.08 154.18,163.47 128.92,197.7 100.39,426.77 -130.53,577.37 -220.56,143.87 -465.14,91.57 -607.16,-125.89 -56.23,-86.41 -74.1,-154.69 -77.2,-186.64l88.66 -25.42c5.11,44.23 24.63,101.17 62.53,159.45 107.31,164.29 283.45,204.98 467.65,84.88 172.72,-112.66 217.38,-282.66 106.72,-452.27 -36.55,-56.15 -84.68,-104.95 -126.08,-129.74l61.23 -65.21z"/>
  <path class="fil0" d="M4423.02 17666.63c-72.76,-155.09 -256.69,-175.98 -428.82,-95.35 -150.6,70.68 -271.25,223.2 -194.75,386.28 76.46,163.11 266.21,172.91 430.35,95.9 159.73,-74.93 265.86,-231.63 193.61,-385.73l-0.39 -1.1zm81.85 -32.94c94.44,201.33 4.6,413.51 -224.9,521.02 -240.55,112.78 -467.61,38.21 -562.37,-164.18 -97.6,-208.13 -1.85,-416.26 223.12,-521.68 259.76,-121.72 473.48,-28.45 563.68,163.78l0.47 1.06z"/>
  <polygon class="fil0" points="3434.22,17261.27 3401.41,17157.06 4113.59,16933.47 4006.52,16592.25 4093.05,16564.97 4232.79,17010.63 "/>
  <polygon class="fil0" points="3562.63,15944.59 3623.23,16263.11 3919.59,16206.79 3852.06,15850.54 3941.04,15833.58 4029.07,16297.26 3206.69,16453.45 3122.2,16008.07 3211.26,15991.07 3275.4,16329.1 3535.16,16279.75 3474.84,15961.32 "/>
  <path class="fil0" d="M3830.3 14902.64c21.45,47.26 53.91,142.61 59.89,255.39 6.89,126.52 -19.75,232.37 -93.65,318.47 -65.37,75.76 -174.61,126.36 -304.82,133.37 -249.41,13.46 -440.94,-149.15 -456.01,-429.33 -5.2,-96.81 11.76,-174.72 27.23,-211.79l89.49 22.55c-18.74,45.8 -30.62,102.35 -25.94,186.8 10.9,203.37 144.58,329.33 354.09,318.04 212.23,-11.49 330.48,-144.78 319.89,-340.67 -3.78,-70.83 -16.41,-118.49 -30.02,-142.77l-249.42 13.54 9.13 168.66 -86.73 4.61 -14.71 -275.19 401.58 -21.68z"/>
  <polygon class="fil0" points="3052.67,14430.18 3888.54,14475.67 3882.64,14584.83 3046.92,14539.3 "/>
  <path class="fil0" d="M3892.36 13792.21c26.99,-169.3 -113.49,-289.79 -301.08,-319.7 -164.37,-26.29 -349.84,32.11 -378.13,209.98 -28.38,177.87 122.97,292.7 302.1,321.11 174.09,27.83 350.11,-42.1 376.83,-210.21l0.28 -1.18zm86.38 18.96c-35.07,219.43 -228.68,344.45 -478.84,304.47 -262.47,-41.75 -408.23,-231.15 -373.09,-451.88 36.32,-226.94 232.49,-345.27 477.69,-306.12 283.33,45.18 407.84,242.57 374.35,452.12l-0.11 1.41z"/>
  <path class="fil0" d="M4190.13 12607.56c14.92,-23.57 29.6,-60.37 45.38,-99.68 87.24,-213.76 12.94,-378.76 -196.68,-463.09 -185.19,-75.68 -340.87,-17.63 -426.14,194.4 -20.66,51.94 -31.88,93.02 -36.88,121.59l614.32 246.78zm-728.63 -174.76c15.74,-66 37.97,-141.43 69.84,-220.85 57.93,-144.1 131.24,-233.71 222.07,-276.44 91.61,-44.74 198.88,-48.64 324.45,1.89 126.68,51 214.27,132.97 257.05,233.2 42.93,102.74 34.12,238.31 -26.52,389.34 -29.24,72.69 -55.1,130.53 -82.92,179.68l-763.97 -306.82z"/>
  <polygon class="fil0" points="4494.4,11270.82 4334.32,11552.54 4596.56,11701.8 4775.89,11386.47 4854.71,11431.45 4621.47,11841.69 3893.78,11427.75 4117.77,11033.96 4196.47,11078.7 4026.47,11377.78 4256.4,11508.62 4416.8,11226.74 "/>
  <polygon class="fil0" points="4342.78,10690.97 4407.59,10602.98 5009.2,11044.7 5220.8,10756.49 5293.95,10810.12 5017.47,11186.6 "/>
  <path class="fil0" d="M6035.89 9540.67c-82.2,-83.03 -182.04,-183.73 -250.55,-260.82l-1.89 1.61c42.15,92.21 87.32,193.54 132.54,307.77l159.65 401.75 -61.27 54.42 -367.08 -207.07c-109,-62.73 -204.23,-120.77 -287.78,-179.32l-1.93 1.61c67.41,79.73 155.4,187.63 234.07,287.15l221.79 283.06 -76.9 68.47 -512.99 -664.14 103.03 -91.81 376.04 207.58c94.41,54.11 175.94,104.56 250.4,154.54l1.81 -1.62c-39.39,-77.95 -78.27,-166.57 -120.58,-270.07l-157.92 -401.39 103.07 -91.81 595.43 590.68 -79.73 71.06 -259.21 -261.65z"/>
  <path class="fil0" d="M6279.2 8780.99l266.38 419.25c99.99,157.25 212.81,179.64 307.1,119.75 103.85,-65.95 127.97,-178.42 29.32,-333.55l-266.3 -419.37 92.08 -58.75 262.48 413c137.93,217.1 79.65,377.77 -73.39,474.93 -144.7,92.05 -305.57,79.3 -445.66,-140.52l-264.4 -416.15 92.39 -58.59z"/>
  <path class="fil0" d="M7461.45 9051.26l-340.08 -764.92 109.05 -48.57 415.91 278.46c95.46,65.13 176.29,124.55 246.73,188.14l2.87 -2.52c-54.42,-98.02 -98.22,-190.19 -150.6,-308.32l-142.68 -321.11 93.1 -41.36 339.8 765.2 -99.79 44.27 -415.28 -280.27c-91.3,-61.66 -181.1,-126.04 -255.51,-192.43l-2.76 2.64c48.52,94.13 90.51,185.46 146.98,312.37l145.09 327.21 -92.83 41.21z"/>
  <path class="fil0" d="M8442.81 8569.27c27.78,-2.47 66.27,-13.06 106.88,-24.16 223.08,-59.97 309.62,-218.79 249.84,-436.88 -51.79,-193.1 -192.04,-282.35 -412.45,-221.71 -53.87,14.72 -93.22,30.7 -119.19,44.15l174.92 638.6zm-301.32 -686.05c62.06,-27.51 135.61,-55.53 218.05,-78.16 149.89,-40.96 265.47,-36.67 354.24,9.84 91.18,45.96 159.02,128.84 194.83,259.6 36.21,131.75 23.81,250.87 -30.06,345.55 -55.96,96.61 -169.37,171.3 -326.31,214.47 -75.35,20.54 -137.14,34.98 -193.06,42.34l-217.69 -793.64z"/>
  <path class="fil0" d="M9633.83 8332.3c170.27,-19.28 248.58,-187.12 227.06,-375.93 -18.89,-165.2 -125.06,-328.19 -303.95,-307.77 -178.98,20.54 -248.71,197.39 -228.13,377.58 20.03,175.35 134.74,325.72 303.88,306.55l1.14 -0.43zm5.11 88.3c-220.88,25.39 -393.28,-127.46 -422.12,-379.27 -30.3,-263.89 112.9,-455.34 335.08,-480.88 228.12,-26.13 394.93,131.16 423.07,378.02 32.7,284.98 -123.72,457.81 -334.81,482.13l-1.22 0z"/>
  <path class="fil0" d="M10838.47 8083.24c-70.8,-4.72 -125.18,-65.8 -120.14,-138.95 3.81,-71.78 67.09,-126.04 138.95,-121.2 72.01,4.99 126.24,65.95 121.36,138.99 -5.04,71.73 -67.25,126.16 -139.11,121.16l-1.06 0z"/>
  <path class="fil0" d="M11789.99 8511.82l11.02 -863.5 110.35 29.44 -13.27 434.92c-3.26,108.41 -8.42,213.52 -14.83,295.57l2.48 0.67c34.71,-77.02 85.55,-166.03 140.96,-263.19l217.1 -379 109.08 29.16 -11.21 436.61c-3.15,103.26 -6.97,203.92 -17.63,292.35l2.44 0.43c40.41,-84.29 87.32,-167.99 139.38,-262.12l215.81 -379.55 106.84 28.76 -445.23 747.41 -109.28 -29 10.35 -447.31c2.52,-111.44 7,-194.91 17.87,-279.44l-2.17 -0.71c-35.14,78.16 -75.12,150.92 -133.01,247.13l-227.88 390.49 -109.17 -29.12z"/>
  <path class="fil0" d="M13144.92 8895.11c155.63,71.62 309.5,-30.81 389.23,-203.37 69.69,-151.35 63.43,-345.83 -100.04,-421.07 -163.66,-75.39 -315.09,39.71 -391,204.2 -73.74,160.2 -53.83,348.3 100.59,419.69l1.22 0.55zm-41.52 77.99c-201.83,-93.26 -269.87,-313.16 -163.86,-543.33 111.17,-241.3 332.96,-330.55 535.77,-236.97 208.77,96.05 269.8,317.05 165.68,542.38 -120.11,260.83 -343.55,327.41 -536.33,238.36l-1.26 -0.44z"/>
  <path class="fil0" d="M14050.13 8960.75l92.71 59.85c97.08,62.89 192.9,49.51 244.85,-30.97 58.67,-90.63 18.73,-172.83 -77.25,-234.89 -43.92,-28.18 -76.74,-43.44 -95.19,-49.54l-165.12 255.55zm115.49 -377.74c52.07,20.15 122.86,57.22 184.41,96.92 96.88,62.45 148.31,122.58 166.57,190.46 14.8,52.46 4.76,113.97 -31.01,169.34 -59.38,91.65 -158.62,114.94 -247.83,92.63l-1.89 3.19c40.92,53.32 40.92,123.96 11.37,208.56 -40.37,112.9 -67.49,191.53 -71.46,227.42l-93.94 -60.84c1.38,-27.39 24.95,-97.71 62.73,-197.67 41.95,-110.5 26.88,-171.81 -53.48,-228.28l-85.43 -55.25 -197.11 304.71 -90.55 -58.76 447.62 -692.43z"/>
  <polygon class="fil0" points="14930.78,9097.65 15014.68,9167.7 14537.11,9741.33 14811.78,9970 14753.86,10039.69 14395.05,9740.78 "/>
  <path class="fil0" d="M15090.31 10248.89c14.96,23.18 41.8,52.46 70.4,83.62 155.64,170.55 336.5,174.37 502.72,21.45 148.04,-134.62 162.68,-300.02 7.83,-468.29 -37.81,-41.08 -70.08,-68.86 -94.05,-85.55l-486.9 448.77zm471.44 -583c52.61,42.62 111.17,95.08 169.17,158.16 105.23,114.12 154.58,219.19 153.87,319.22 1.06,102.12 -41.6,200.54 -141.12,292.03 -100.58,92.59 -212.18,136.27 -321.03,132.02 -111.44,-5.43 -229.93,-72.01 -340,-191.68 -53.13,-57.49 -94.25,-105.74 -126.63,-151.86l605.74 -557.89z"/>
  <path class="fil0" d="M15943.78 11231.9c-1.34,57.49 14.63,129.23 53.44,192.78 57.45,94.64 139.89,119.83 213.16,75.48 65.8,-40.06 81.74,-102.16 59.11,-220.8 -28.73,-142.54 -11.1,-251.89 88.58,-312.89 111.49,-67.53 250.32,-25.78 334.85,113.33 43.99,72.1 59.97,136.36 60.68,178.31l-90.79 20.3c0.28,-30.77 -8.62,-90.7 -48.05,-155.4 -59.54,-97.43 -140.36,-99.09 -189.08,-69.42 -67.06,40.58 -73.43,104.13 -51.51,226.04 25.97,149.93 5.43,245.56 -99.52,309.27 -110.43,67.33 -256.03,45.49 -358.81,-123.29 -41.99,-69.02 -66.43,-157.37 -64.27,-210.93l92.21 -22.78z"/>
  <path class="fil0" d="M16484.39 12498.95c-34,-26.84 -85.08,-92.36 -126.87,-185.31 -96.21,-215.57 -32.46,-437.24 219.19,-550.02 240.32,-107.67 473.95,-17.75 579.89,219.23 42.18,94.21 49.27,164.53 47.18,196.68l-91.61 11.14c2.09,-44.59 -8.18,-104.01 -36.64,-167.29 -80.23,-179.13 -248.07,-246.85 -448.69,-157.17 -188.25,84.49 -258.89,245.4 -176.17,430.19 27.5,61.27 67.48,116.76 104.28,147.77l-70.56 54.78z"/>
  <polygon class="fil0" points="17396.21,12661.08 17059.28,12757.76 17171.04,13146.95 17507.7,13050.46 17537.8,13155.53 16733.17,13386.13 16703.07,13281.18 17080.26,13172.89 16968.77,12783.66 16591.59,12891.72 16561.32,12786.81 17365.95,12556.17 "/>
  <path class="fil0" d="M16919.35 14040.12c21.8,169.73 190.34,246.07 378.84,222.06 165.08,-21.01 326.66,-129.34 303.91,-308 -22.78,-178.42 -200.34,-246.23 -380.26,-223.05 -175.07,22.28 -324.14,138.8 -302.65,307.5l0.16 1.49zm-88.03 6.22c-28.3,-220.53 122.46,-395.05 373.88,-427.12 263.46,-33.37 456.72,107.19 485.05,328.82 29,227.81 -126.08,396.82 -372.62,428.03 -284.44,36.2 -459.36,-117.98 -486.16,-328.63l-0.15 -1.1z"/>
  <path class="fil0" d="M16969.17 15060.44c-5,171.18 149.81,272.63 339.56,278.33 166.34,4.88 342.76,-76.73 348.03,-256.77 5.31,-180.07 -159.61,-274.44 -340.79,-279.83 -176.29,-5.15 -341.81,86.77 -346.8,256.89l0 1.38zm-87.99 -7.72c6.53,-222.22 182.39,-370.93 435.62,-363.49 265.7,7.75 434.64,176.77 427.99,400.37 -6.81,229.5 -186.17,372.11 -434.36,364.79 -286.96,-8.5 -435.63,-188.18 -429.41,-400.37l0.16 -1.3z"/>
  <polygon class="fil0" points="17668.02,15867.78 17650.66,15975.52 16913.64,15857.82 16857.29,16211.04 16767.76,16196.8 16841.31,15735.71 "/>
  <path class="fil0" d="M16797.87 17141.16c22.35,-67.09 94.95,-104.4 164.65,-81.18 68.59,21.53 105.22,96.65 82.48,164.96 -22.79,68.32 -95.55,105.62 -164.93,82.33 -68.31,-22.67 -105.38,-96.53 -82.6,-164.85l0.4 -1.26z"/>
  <path class="fil1" d="M16447.64 14852.66c0,3357.34 -2721.81,6079.34 -6079.51,6079.34 -3357.65,0 -6079.26,-2722 -6079.26,-6079.34 0,-3357.81 2721.61,-6079.46 6079.26,-6079.46 3357.7,0 6079.51,2721.65 6079.51,6079.46z"/>
  <path class="fil2" d="M9015.97 11653.83c161.5,-157.37 242.01,-354.48 242.01,-591.34 0,-236.7 -80.51,-433.82 -242.01,-591.46 -160.8,-157.8 -356.41,-236.7 -585.68,-236.7 -229.38,0 -425,78.9 -586.02,236.7 -161.35,157.64 -241.78,354.76 -241.78,591.46 0,236.86 80.43,433.97 241.78,591.34 161.02,157.84 356.64,236.74 586.02,236.74 229.27,0 424.88,-78.9 585.68,-236.74zm1516.89 6176.58c158.75,273.3 428.27,409.69 808.68,409.69 379.59,0 649.54,-136.39 808.68,-409.69 158.9,-272.79 238.35,-703.06 238.35,-1290.9 0,-587.32 -79.45,-1017.56 -238.35,-1290.58 -159.14,-273.06 -429.09,-409.26 -808.68,-409.26 -380.41,0 -649.93,136.2 -808.68,409.26 -159.02,273.02 -238.47,703.26 -238.47,1290.58 0,587.84 79.45,1018.11 238.47,1290.9zm5656.39 -2981.25c0,3215.51 -2606.31,5821.43 -5821.67,5821.43 -2733.1,0 -5025.03,-1883.06 -5651.23,-4422.55 1139.19,-13.03 2219.68,-267.91 3195.13,-712.51l0 -2265.68c0,-179.48 -62.37,-310.84 -187.08,-393.79 -124.35,-82.6 -345.43,-124.36 -663.67,-124.36l0 -209.86c421.81,-14.09 808.56,-39.04 1160.13,-74.29 351.93,-35.34 655.09,-88.66 910.05,-159.54l5.32 3290.68c0,186.49 0,390.13 0,611.1 0,214.46 -3.15,425.15 -10.32,632.3 -7.04,207.42 -17.51,400.76 -31.16,580.24 -14.01,179.76 -31.17,331.62 -52.06,455.78 345.98,200.65 729.74,366.32 1151.78,497.84 422.05,131.23 816.16,196.56 1182.76,196.56 311.28,0 612.24,-46.63 902.62,-139.9 290.65,-93.3 548.36,-229.65 772.87,-409.96 224.93,-179.76 406.7,-400.76 545.14,-664.03 138.28,-263.03 207.26,-560.72 207.26,-892.85 0,-304.27 -51.9,-584.61 -155.71,-840.6 -103.89,-256.14 -249.38,-477.21 -436.73,-664.33 -186.92,-187.08 -408.2,-333.75 -664.57,-441.02 -256.5,-107.51 -536.84,-161.18 -841.62,-161.18 -228.67,0 -462.15,40.25 -701.17,120.14 -239.26,80.35 -455.54,179.76 -649.39,297.81l0 -979.46c1048.49,-1095.6 1786.26,-2490.62 2070.46,-4044.55 -1297.7,-551.04 -2801.45,-622.78 -4223.87,-82.79 -1580.05,599.6 -2735.66,1830.76 -3289.06,3296.93 533.18,-1578.6 1741.4,-2914.79 3420.3,-3552.48 1401.79,-531.76 2866.23,-485.13 4145.36,14.52 0.12,-1.38 0.67,-2.72 0.83,-3.7 2170.33,845.59 3709.3,2954.61 3709.3,5424.1z"/>
  <path class="fil0" d="M16302.82 9567.32c1251.51,1404.5 2012.41,3255.41 2012.41,5284.55 0,4388.75 -3558.11,7947.02 -7947.1,7947.02 -503.62,0 -996.7,-47.41 -1474.74,-137.29 633.68,166.77 1299.04,255.74 1985.02,255.74 12.63,0 24.83,-0.27 37.58,-0.27 4209.23,-282 7536.27,-3784.39 7536.27,-8065.2 0,-1325.09 -319.03,-2576.28 -884.2,-3679.94 -350.39,-589.73 -776.84,-1128.77 -1265.24,-1604.61z"/>
  <path class="fil0" d="M2421.23 14851.87c0,-3936.72 2862.73,-7204.1 6619.69,-7836.05 591.22,-132.69 1206.01,-203.8 1837.49,-203.8 147.8,0 294.47,4.45 440.35,11.53 -228.24,-26.6 -459.36,-44.07 -692.87,-51.51l-505.79 0c-4349.83,131.16 -7836.05,3698.24 -7836.05,8079.83 0,1861.97 630.02,3576.41 1687.76,4943.5 -418.66,-619.83 -755.48,-1299.32 -996.07,-2022.18 -357.91,-904.26 -554.51,-1889.87 -554.51,-2921.32z"/>
  <path class="fil0" d="M18240.54 9251.99c83.43,0 165.32,-2.64 165.32,-96.29 0,-76.98 -64.1,-95.04 -130.61,-95.04l-124.55 0 0 191.33 89.84 0zm-89.84 302.69l-68 0 0 -551.71 211.56 0c124.51,0 179.8,53.87 179.8,152.73 0,97.47 -64.03,141.11 -138.56,154.02l164.22 244.96 -79.42 0 -155.32 -244.96 -114.28 0 0 244.96zm-297.89 -275.77c0,228.32 172.13,409.41 403.12,409.41 230.76,0 403.04,-181.09 403.04,-409.41 0,-228.4 -172.28,-409.34 -403.04,-409.34 -230.99,0 -403.12,180.94 -403.12,409.34zm880.42 0c0,268.18 -207.7,477.37 -477.3,477.37 -269.44,0 -477.41,-209.19 -477.41,-477.37 0,-268.19 207.97,-477.38 477.41,-477.38 269.6,0 477.3,209.19 477.3,477.38z"/>
 </g>
</svg>
